<svg xmlns="http://www.w3.org/2000/svg"><defs><font id="Ubuntu" horiz-adv-x="602"><font-face font-family="Ubuntu" panose-1="2 11 5 4 3 6 2 3 2 4" ascent="932" descent="-189" alphabetic="0"/><glyph glyph-name="space" horiz-adv-x="231"/><glyph unicode="!" glyph-name="exclam" horiz-adv-x="276" d="M188 505q0-84-6-152t-15-137h-58q-9 68-15 136t-6 153v188h100V505zm17-451q0-27-18-47t-49-20q-31 0-49 20T71 54q0 27 18 47t49 20q31 0 49-20t18-47z"/><glyph unicode="&quot;" glyph-name="quotedbl" horiz-adv-x="418" d="M169 760v-50q0-49-6-102t-15-107H93q-9 53-15 106t-6 104v49h97zm177 0v-50q0-49-6-102t-15-107h-55q-9 53-15 106t-6 104v49h97z"/><glyph unicode="#" glyph-name="numbersign" horiz-adv-x="667" d="M284 510h162l35 183h84l-35-183h88v-74H515l-34-179h137v-74H467L432 0h-84l35 183H221L186 0h-84l35 183H49v74h102l34 179H49v74h151l35 183h84l-35-183zm-49-253h162l35 179H270l-35-179z"/><glyph unicode="$" glyph-name="dollar" horiz-adv-x="564" d="M262 95q77 0 108 24t31 63q0 28-13 48t-36 35-52 27-61 23q-30 11-59 24t-53 33-37 47-15 68q0 71 42 116t124 58v115h83V664q44-2 82-11t60-17l-19-78q-24 9-60 18t-90 10q-60 0-92-23t-33-65q0-23 9-39t28-28 42-23 55-21q39-15 74-31t61-38 43-54 16-75q0-71-43-114T324 20v-129h-83V17q-70 2-114 15T61 58l25 75q30-14 72-26t104-12z"/><glyph unicode="%" glyph-name="percent" horiz-adv-x="858" d="M50 524q0 45 12 79t33 57 51 36 63 12q34 0 63-12t50-35 34-58 12-79q0-45-12-79t-33-57-51-36-63-12q-34 0-63 12t-50 35-34 58-12 79zm240 0q0 54-21 84t-60 31q-39 0-60-30t-21-85q0-54 21-84t60-31q39 0 60 30t21 85zm200-355q0 45 12 79t33 57 51 36 63 12q34 0 63-12t50-35 34-58 12-79q0-45-12-79t-33-57-51-36-63-12q-34 0-63 12t-50 35-34 58-12 79zm240 0q0 54-21 84t-60 31q-39 0-60-30t-21-85q0-54 21-84t60-31q39 0 60 30t21 85zm-60 524L279 0h-91l391 693h91z"/><glyph unicode="&amp;" glyph-name="ampersand" horiz-adv-x="666" d="M46 184q0 39 12 69t32 55 48 43 56 33q-74 74-74 153 0 40 13 72t37 54 56 34 72 12q40 0 71-12t53-32 33-48 11-59q0-35-11-63t-31-51-45-42-53-34l162-165q34 63 44 140l77-10q-4-41-20-89t-47-97q35-38 64-75t49-72h-98q-12 20-29 41t-37 42q-41-41-95-66T272-9Q207-9 164 9T95 56t-38 63-11 65zm93 2q0-18 7-39t23-38 41-29 64-12q49 0 90 18t74 51L243 334q-18-9-36-21t-34-29-24-42-10-56zm243 369q0 34-22 57t-62 24q-44 0-67-26t-24-66q0-65 68-127 22 11 41 24t34 30 23 37 9 47z"/><glyph unicode="'" glyph-name="quotesingle" horiz-adv-x="241" d="M169 760v-50q0-49-6-102t-15-107H93q-9 53-15 106t-6 104v49h97z"/><glyph unicode="(" glyph-name="parenleft" horiz-adv-x="324" d="M171 299q0-128 37-237t109-202l-66-45Q173-90 126 33T78 299q0 142 47 265t126 219l66-45q-72-93-109-202t-37-237z"/><glyph unicode=")" glyph-name="parenright" horiz-adv-x="324" d="M153 299q0 128-37 237T7 738l66 45q78-95 125-218t48-266q0-142-47-265T73-185L7-140Q79-47 116 62t37 237z"/><glyph unicode="*" glyph-name="asterisk" horiz-adv-x="480" d="M285 685q0-42-7-80t-16-80q36 20 71 39t76 33l6 2 28-84-8-3q-40-15-80-19t-82-8q33-28 62-54t54-62l5-7-73-51-4 6q-24 36-41 71t-36 74q-18-38-35-73t-42-72l-4-6-73 51 5 7q25 35 54 61t62 55q-42 3-82 7t-80 20l-8 3 28 84 6-2q41-14 76-33t71-39q-8 41-15 79t-8 81v8h90v-8z"/><glyph unicode="+" glyph-name="plus" horiz-adv-x="564" d="M53 339h189v206h80V339h189v-79H322V53h-80v207H53v79z"/><glyph unicode="," glyph-name="comma" horiz-adv-x="246" d="M178 114q1-8 1-15t0-16q0-63-18-124t-51-118l-72 23Q63-85 71-33t8 99v25q0 12-2 23h101z"/><glyph unicode="-" glyph-name="hyphen" horiz-adv-x="299" d="M26 343h247v-87H26v87z"/><glyph unicode="." glyph-name="period" horiz-adv-x="246" d="M190 54q0-27-18-47t-49-20Q92-13 74 7T56 54q0 27 18 47t49 20q31 0 49-20t18-47z"/><glyph unicode="/" glyph-name="slash" horiz-adv-x="384" d="M71-185h-95l339 968h93L71-185z"/><glyph unicode="0" glyph-name="zero" horiz-adv-x="564" d="M50 347q0 174 61 268t171 94q109 0 170-94t62-268q0-174-61-268T282-15q-109 0-170 94T50 347zm366 0q0 57-6 108t-22 89-42 60-64 23q-38 0-64-22t-41-61-22-89-7-108q0-57 6-108t22-89 42-60 64-23q38 0 64 22t41 61 22 89 7 108z"/><glyph unicode="1" glyph-name="one" horiz-adv-x="564" d="M93 550q57 22 111 56t99 87h66V0h-93v564q-12-11-29-23t-38-23-43-21-44-17l-29 70z"/><glyph unicode="2" glyph-name="two" horiz-adv-x="564" d="M467 516q0-36-14-69t-39-66-54-64-60-62q-17-17-39-40t-43-48-33-48-14-40h319V0H70q-1 6-1 12t0 11q0 47 15 87t41 77 56 68 61 62q25 24 47 47t40 47 28 49 11 53q0 30-9 51t-26 35-37 20-46 7q-29 0-53-8t-43-18-32-22-20-18l-46 66q9 10 27 24t43 28 56 22 67 9q109 0 163-50t55-143z"/><glyph unicode="3" glyph-name="three" horiz-adv-x="564" d="M226 68q89 0 127 35t39 94q0 38-16 64t-42 41-60 22-71 7h-24v76h33q25 0 51 5t49 18 36 35 14 57q0 28-10 48t-26 33-38 18-46 6q-48 0-81-14t-57-29l-36 71q12 8 30 17t42 18 49 13 56 6q55 0 95-13t66-38 39-58 13-73q0-54-31-92t-75-59q27-8 52-23t43-38 30-53 12-67q0-45-15-83t-48-67-82-44-116-16q-26 0-53 4T123-1 81 11 55 21l18 81q17-8 56-21t97-13z"/><glyph unicode="4" glyph-name="four" horiz-adv-x="564" d="M40 240q19 44 52 102t74 121 89 122 96 108h89V253h82v-76h-82V0h-90v177H40v63zm310 343q-30-32-60-71t-60-83-54-88-46-88h220v330z"/><glyph unicode="5" glyph-name="five" horiz-adv-x="564" d="M199 426q151-6 221-66t71-163q0-46-15-85t-47-67-80-44-114-16q-26 0-53 4T132-1 91 11 65 21l18 81q17-8 55-21t95-13q45 0 75 10t50 27 27 39 9 48q0 38-13 67t-46 50-88 30-139 11q6 49 9 92t7 84 5 81 4 86h334v-79H214q-1-15-3-40t-4-53-4-54-4-41z"/><glyph unicode="6" glyph-name="six" horiz-adv-x="564" d="M63 278q0 101 28 178t79 131 125 80 166 29l7-78q-59-1-107-13t-87-38-64-67-39-103q26 12 58 20t68 8q59 0 100-18t67-47 37-68 12-81q0-38-13-78t-39-73-68-54-97-21q-114 0-173 78T63 278zm224 71q-35 0-65-6t-60-20q-1-11-1-22t-1-23q0-44 6-83t21-68 42-47 66-18q33 0 56 14t38 36 21 47 7 50q0 68-32 104t-98 36z"/><glyph unicode="7" glyph-name="seven" horiz-adv-x="564" d="M163 0q6 80 28 168t56 172 72 155 78 117H60v81h441v-77q-33-38-73-104t-75-149-61-176T260 0h-97z"/><glyph unicode="8" glyph-name="eight" horiz-adv-x="564" d="M509 180q0-42-14-77t-43-62-72-41-99-15q-65 0-108 18t-70 47-37 61-11 64q0 29 9 55t25 50 36 41 44 33q-98 56-98 165 0 38 15 72t42 61 67 41 87 16q56 0 96-17t65-43 37-59 12-62q0-29-8-54t-23-48-33-39-39-30q118-56 120-177zm-360-6q0-18 6-37t23-36 41-28 63-11q34 0 59 10t42 25 24 36 8 41q0 32-12 56t-34 42-54 30-72 22q-45-25-69-62t-25-88zm250 355q0 15-6 33t-21 33-36 26-54 11q-32 0-54-10t-37-25-20-34-7-37q0-22 8-44t25-41 44-34 66-24q42 25 67 58t25 88z"/><glyph unicode="9" glyph-name="nine" horiz-adv-x="564" d="M501 416q0-206-102-311T94-2l-3 78q63 0 113 12t89 38 63 69 38 103q-26-12-59-19t-68-8q-59 0-100 17t-67 47-37 68-12 81q0 37 13 77t39 73 68 54 97 21q57 0 100-20t73-58 45-92 15-123zm-224-69q35 0 66 6t60 20q1 11 1 21t0 22q0 43-6 82t-21 69-42 47-66 18q-33 0-56-14t-38-35-21-47-7-50q0-68 32-103t98-36z"/><glyph unicode=":" glyph-name="colon" horiz-adv-x="246" d="M190 54q0-27-18-47t-49-20Q92-13 74 7T56 54q0 27 18 47t49 20q31 0 49-20t18-47zm0 399q0-27-18-47t-49-20q-31 0-49 20t-18 47q0 27 18 47t49 20q31 0 49-20t18-47z"/><glyph unicode=";" glyph-name="semicolon" horiz-adv-x="246" d="M178 114q1-8 1-15t0-16q0-63-18-124t-51-118l-72 23Q63-85 71-33t8 99v25q0 12-2 23h101zm12 339q0-27-18-47t-49-20q-31 0-49 20t-18 47q0 27 18 47t49 20q31 0 49-20t18-47z"/><glyph unicode="&lt;" glyph-name="less" horiz-adv-x="564" d="M156 299l355-146-26-77L53 259v80l432 183 26-77-355-146z"/><glyph unicode="=" glyph-name="equal" horiz-adv-x="564" d="M53 232h458v-79H53v79zm0 213h458v-79H53v79z"/><glyph unicode="&gt;" glyph-name="greater" horiz-adv-x="564" d="M53 445l26 77 432-183v-80L79 76l-26 77 355 146L53 445z"/><glyph unicode="?" glyph-name="question" horiz-adv-x="404" d="M174 631q-66 0-129-34l-26 72q34 18 76 29t91 11q57 0 93-15t59-40 30-53 9-57q0-34-13-60t-32-50-42-44-42-43-32-49-13-60v-11q0-6 1-11h-78q-4 20-4 42 0 32 11 58t30 48 38 42 38 40 29 42 12 48q0 42-27 68t-79 27zm63-577q0-27-18-47t-49-20q-31 0-49 20t-18 47q0 27 18 47t49 20q31 0 49-20t18-47z"/><glyph unicode="@" glyph-name="at" horiz-adv-x="950" d="M690 43q-32 0-53 9t-35 24q-22-12-53-20t-62-9q-48 0-87 15t-69 44-45 73-16 100q0 48 15 90t44 74 72 50 97 18q51 0 93-8t66-16V181q0-32 11-45t29-13q26 0 45 18t32 47 19 65 6 75q0 63-22 118t-63 98-99 66-132 24q-73 0-134-24t-105-70-68-112-25-150q0-88 26-154t72-111 110-67 140-23q59 0 97 7t50 11l10-74q-17-6-61-13t-96-7q-89 0-168 25T193-50 100 84 65 278q0 108 34 189t91 134 133 81 160 27q82 0 155-26t128-77 87-122 32-162q0-68-15-120t-42-87-62-54-76-18zm-200 81q21 0 42 4t39 14q-3 13-4 26t-1 25v235q-6 2-23 4t-38 2q-71 0-106-44t-35-111q0-71 34-113t92-42z"/><glyph unicode="A" glyph-name="A" horiz-adv-x="663" d="M549 0q-17 45-32 88t-31 89H172L109 0H8q40 110 75 203t68 178 67 160 69 152h89q36-75 69-151t66-161 69-177T655 0H549zm-91 257q-32 87-63 168t-66 157q-35-75-66-156t-63-169h258z"/><glyph unicode="B" glyph-name="B" horiz-adv-x="643" d="M273-6q-21 0-45 1t-49 3-49 5-44 8v672q20 5 44 8t48 5 49 3 45 1q60 0 112-9t91-30 61-57 22-86q0-57-27-93t-72-55q61-18 97-57t36-110q0-104-76-156T273-6zm-91 329V79q11-1 26-2 13-1 30-1t41-1q43 0 81 5t68 20 46 39 18 63q0 34-13 57t-37 38-59 20-76 6H182zm0 78h102q36 0 68 5t55 18 37 34 14 53q0 30-14 50t-38 33-58 19-70 6q-37 0-58-1t-38-3V401z"/><glyph unicode="C" glyph-name="C" horiz-adv-x="620" d="M384-15q-73 0-133 24T148 79 82 192 58 347q0 87 26 154t72 114 105 70 128 24q43 0 77-6t60-14 42-16 22-12l-28-80q-9 6-26 13t-38 14-47 11-52 5q-55 0-99-19t-75-55-47-87-17-116q0-62 14-113t44-87 72-57 102-20q67 0 111 14t66 25l25-80q-7-5-25-12T525 2t-63-12-78-5z"/><glyph unicode="D" glyph-name="D" horiz-adv-x="713" d="M655 347q0-90-28-156T548 81 426 16 270-6q-42 0-92 3T86 11v672q41 10 91 13t93 4q85 0 156-21t122-65 79-110 28-157zM278 79q138 0 206 70t68 198q0 127-68 197t-206 71q-41 0-63-1t-32-2V82q9-1 31-2t64-1z"/><glyph unicode="E" glyph-name="E" horiz-adv-x="571" d="M86 0v693h423v-83H183V404h290v-81H183V83h351V0H86z"/><glyph unicode="F" glyph-name="F" horiz-adv-x="537" d="M86 0v693h418v-83H183V401h285v-82H183V0H86z"/><glyph unicode="G" glyph-name="G" horiz-adv-x="672" d="M509 341h97V17q-12-4-34-9T520-2t-65-8-71-4q-73 0-133 24T148 80 82 193 58 347q0 87 26 154t72 114 105 70 130 24q47 0 83-6t63-14 42-16 23-12l-31-81q-29 19-77 31t-98 13q-53 0-96-19t-74-55-48-87-17-116q0-62 14-113t44-87 73-57 103-20q42 0 71 4t43 9v258z"/><glyph unicode="H" glyph-name="H" horiz-adv-x="705" d="M522 693h97V0h-97v320H183V0H86v693h97V404h339v289z"/><glyph unicode="I" glyph-name="I" horiz-adv-x="269" d="M86 693h97V0H86v693z"/><glyph unicode="J" glyph-name="J" horiz-adv-x="500" d="M419 223q0-50-10-93t-37-75-71-51-112-19q-34 0-62 5T75 4 35 22 8 41l38 77q21-15 54-31t84-17q72 0 105 36t33 126v461h97V223z"/><glyph unicode="K" glyph-name="K" horiz-adv-x="629" d="M599 693q-31-34-70-75t-81-85-85-86-79-78q43-30 91-74t94-94 86-102 68-99H509q-30 47-69 94t-82 91-88 81-87 63V0H86v693h97V387q35 33 77 74t83 84 77 80 62 68h117z"/><glyph unicode="L" glyph-name="L" horiz-adv-x="519" d="M503 84V0H86v693h97V84h320z"/><glyph unicode="M" glyph-name="M" horiz-adv-x="871" d="M397 96q-10 24-26 61t-36 80-40 88-41 86-35 73-27 49q-11-118-18-255T162 0H67q4 90 9 181t11 180 14 173 17 159h85q27-44 58-104t62-125 60-131 53-120q24 54 53 119t60 131 62 126 58 104h85q34-335 51-693h-95q-5 140-12 277t-18 256q-10-17-26-49t-36-72-40-86-41-89-35-80-27-61h-78z"/><glyph unicode="N" glyph-name="N" horiz-adv-x="728" d="M561 0q-22 37-50 83t-62 95-68 101-71 98-68 90-61 74V0H86v693h77q47-50 100-116t106-137 99-139 79-121v513h95V0h-81z"/><glyph unicode="O" glyph-name="O" horiz-adv-x="778" d="M58 347q0 89 26 157t72 113 106 69 129 23q67 0 126-23t105-68 71-114 27-157q0-89-26-157T622 77 518 8 391-15q-68 0-128 23T157 76 85 190 58 347zm102 0q0-63 16-114t45-88 72-55 96-20q53 0 95 19t71 56 46 87 16 115q0 63-16 114t-45 88-72 55-95 20q-53 0-95-19t-72-56-46-87-16-115z"/><glyph unicode="P" glyph-name="P" horiz-adv-x="608" d="M270 700q146 0 224-55t79-166q0-60-21-102t-62-69-99-39-131-12h-77V0H86v683q41 10 91 13t93 4zm8-85q-62 0-95-3V340h73q50 0 90 6t67 22 43 43 15 69q0 40-15 66t-42 41-62 22-74 6z"/><glyph unicode="Q" glyph-name="Q" horiz-adv-x="778" d="M58 347q0 89 26 157t72 113 106 69 129 23q67 0 126-23t105-68 71-114 27-157q0-78-20-139t-55-105-83-72T460-7q1-23 20-40t50-30 67-20 74-12l-23-76q-52 7-99 18t-86 31-65 48-35 74q-63 4-119 29t-97 71-65 111-24 150zm102 0q0-63 16-114t45-88 72-55 96-20q53 0 95 19t71 56 46 87 16 115q0 63-16 114t-45 88-72 55-95 20q-53 0-95-19t-72-56-46-87-16-115z"/><glyph unicode="R" glyph-name="R" horiz-adv-x="629" d="M425 290q16-20 40-52t51-72 51-83 44-83H505q-20 38-43 77t-48 74-47 67-43 54q-13-1-26-1t-28 0h-87V0H86v683q41 10 91 13t93 4q146 0 222-55t77-164q0-69-36-118t-108-73zM278 615q-62 0-95-3V351h69q50 0 90 5t67 19 43 39 15 68q0 39-15 65t-40 41-60 21-74 6z"/><glyph unicode="S" glyph-name="S" horiz-adv-x="532" d="M247 69q152 0 152 104 0 32-13 54t-37 39-52 29-63 24q-38 13-72 29t-59 39-39 54-15 75q0 91 62 142t171 51q63 0 114-13t76-30l-31-79q-21 13-62 25t-97 13q-28 0-52-6t-42-18-28-30-11-44q0-28 11-47t31-33 46-27 59-24q45-18 82-36t65-43 43-59 15-84q0-91-66-140T247-15q-41 0-75 5T110 3 64 19 33 34l29 80q23-13 70-29t115-16z"/><glyph unicode="T" glyph-name="T" horiz-adv-x="565" d="M549 693v-84H331V0h-97v609H16v84h533z"/><glyph unicode="U" glyph-name="U" horiz-adv-x="688" d="M344-15q-68 0-118 21t-82 57-47 87-16 108v435h97V269q0-104 46-151t120-47q37 0 67 11t53 36 34 61 12 90v424h97V258q0-58-15-108t-48-86-82-58-118-21z"/><glyph unicode="V" glyph-name="V" horiz-adv-x="656" d="M646 693q-38-110-72-203t-68-178-65-160T374 0h-91q-34 75-66 151t-66 161-69 177-72 204h107q54-158 106-304t107-274q55 127 107 273t105 305h104z"/><glyph unicode="W" glyph-name="W" horiz-adv-x="929" d="M465 470q-42-134-85-248T294 0h-97q-53 153-93 323T28 693h102q14-78 29-156t31-151 32-141 33-124q40 105 85 230t84 260h84q39-134 85-259t86-231q16 56 32 123t31 140 31 152 29 157h99q-36-200-76-370T732 0h-97q-44 108-86 222t-84 248z"/><glyph unicode="X" glyph-name="X" horiz-adv-x="631" d="M502 0q-15 30-36 66t-46 76-52 79-52 75q-25-35-52-74t-51-79-46-76-37-67H23q45 88 104 179t127 187L32 693h112l171-258 169 258h111L377 370q68-97 128-189T611 0H502z"/><glyph unicode="Y" glyph-name="Y" horiz-adv-x="598" d="M251 0v278q-69 107-130 211T6 693h114q38-82 85-166t97-163q49 78 96 162t86 167h108q-54-100-115-203T348 280V0h-97z"/><glyph unicode="Z" glyph-name="Z" horiz-adv-x="573" d="M526 616q-23-26-53-62t-65-81-70-94-70-100-66-101-56-95h390V0H33v65q21 40 49 88t61 98 68 101 69 98 67 88 60 72H51v83h475v-77z"/><glyph unicode="[" glyph-name="bracketleft" horiz-adv-x="329" d="M96 783h225v-73H183v-822h138v-73H96v968z"/><glyph unicode="\" glyph-name="backslash" horiz-adv-x="384" d="M-24 783h93l339-968h-95L-24 783z"/><glyph unicode="]" glyph-name="bracketright" horiz-adv-x="329" d="M233-185H8v73h138v822H8v73h225v-968z"/><glyph unicode="^" glyph-name="asciicircum" horiz-adv-x="564" d="M323 693l194-340-74-38-161 282-161-282-74 38 194 340h82z"/><glyph unicode="_" glyph-name="underscore" horiz-adv-x="492" d="M-4-106h500v-79H-4v79z"/><glyph unicode="`" glyph-name="grave" horiz-adv-x="376" d="M121 776l128-154-47-42L61 717l60 59z"/><glyph unicode="a" glyph-name="a" horiz-adv-x="522" d="M256 67q33 0 58 1t43 6v155q-10 5-32 8t-55 4q-21 0-44-3t-43-12-33-26-13-44q0-50 32-69t87-20zm-8 466q56 0 94-14t62-41 34-63 10-81V9q-12-2-33-5t-49-7-58-5-63-3q-44 0-81 9t-64 28-42 52-15 77q0 43 17 74t48 50 70 28 84 9q14 0 29-1t28-4 24-5 14-3v26q0 23-5 45t-18 40-35 28-59 11q-46 0-80-6t-52-14l-11 77q18 8 60 15t91 8z"/><glyph unicode="b" glyph-name="b" horiz-adv-x="589" d="M173 497q17 11 51 23t80 12q56 0 99-20t74-56 45-86 16-110q0-63-18-113t-53-86-82-54-108-19q-65 0-115 9T80 15v745l93 16V497zm0-416q14-4 39-7t64-4q75 0 120 49t45 141q0 40-8 75t-26 60-46 40-69 15q-38 0-70-13t-49-27V81z"/><glyph unicode="c" glyph-name="c" horiz-adv-x="465" d="M306-12q-63 0-110 20t-80 56-49 85-16 110q0 60 17 110t50 86 78 57 104 21q35 0 70-6t67-19l-21-79q-21 10-48 16t-59 6q-78 0-119-49t-42-143q0-42 9-77t30-60 53-38 78-14q37 0 67 7t47 15l13-78q-8-5-23-9t-34-8-40-6-42-3z"/><glyph unicode="d" glyph-name="d" horiz-adv-x="589" d="M416 410q-17 14-49 27t-70 13q-40 0-68-14t-47-40-26-61-8-75q0-91 45-140t120-50q38 0 63 3t40 8v329zm0 350l93 16V15q-32-9-82-18t-115-9q-60 0-108 19t-82 54-52 85-19 114q0 60 15 110t46 86 73 56 100 20q45 0 79-12t52-23v263z"/><glyph unicode="e" glyph-name="e" horiz-adv-x="559" d="M51 259q0 69 20 120t53 86 76 51 88 17q105 0 161-65t56-200v-15q0-9-1-18H148q6-81 47-123t128-42q49 0 82 8t51 17l13-78q-17-9-59-19t-97-10q-68 0-117 20t-82 57-47 85-16 109zm357 51q1 63-31 103t-90 41q-32 0-56-12t-42-33-26-46-13-53h258z"/><glyph unicode="f" glyph-name="f" horiz-adv-x="386" d="M283 776q41 0 70-6t42-11l-17-80q-12 6-34 11t-54 6q-65 0-91-35t-26-96v-45h200v-78H173V0H80v567q0 100 49 154t154 55z"/><glyph unicode="g" glyph-name="g" horiz-adv-x="578" d="M406 52q-12-8-46-20t-81-13q-47 0-88 15t-73 46-49 79-18 112q0 57 17 104t49 82 80 54 106 20q65 0 113-9t82-18V40q0-120-62-174t-188-54q-49 0-92 8t-76 19l17 81q28-11 68-19t85-9q83 0 119 33t37 105v22zm-1 386q-14 4-37 7t-64 4q-75 0-115-49t-41-130q0-45 11-77t31-53 45-31 53-10q37 0 68 10t49 25v304z"/><glyph unicode="h" glyph-name="h" horiz-adv-x="571" d="M80 0v760l93 16V510q26 10 55 15t59 6q62 0 103-17t65-49 35-76 10-97V0h-93v272q0 48-6 82t-22 55-40 30-62 10q-15 0-31-2t-30-4-26-6-17-5V0H80z"/><glyph unicode="i" glyph-name="i" horiz-adv-x="253" d="M173 0H80v520h93V0zm-47 614q-25 0-42 16t-18 45q0 28 17 44t43 17q25 0 42-16t18-45q0-28-17-44t-43-17z"/><glyph unicode="j" glyph-name="j" horiz-adv-x="253" d="M-5-187q-12 0-31 3t-32 8l12 76q10-3 23-5t24-2q48 0 68 29T80 9v511h93V10q0-100-45-148T-5-187zm131 801q-25 0-42 16t-18 45q0 28 17 44t43 17q25 0 42-16t18-45q0-28-17-44t-43-17z"/><glyph unicode="k" glyph-name="k" horiz-adv-x="522" d="M268 286q30-23 63-57t66-73 62-80 49-76H399q-21 35-48 71t-58 70-61 62-59 47V0H80v760l93 16V302l53 53q29 29 57 59t53 57 43 49h109q-23-25-50-55t-56-60-58-61-56-58z"/><glyph unicode="l" glyph-name="l" horiz-adv-x="273" d="M236-10q-86 2-122 37T78 136v624l93 16V151q0-23 4-38t13-24 24-13 37-8l-13-78z"/><glyph unicode="m" glyph-name="m" horiz-adv-x="861" d="M80 505q32 8 84 17t122 9q50 0 84-13t57-40q7 5 22 14t37 17 49 15 58 7q60 0 98-17t59-50 29-76 8-96V0h-93v272q0 46-4 79t-17 55-34 32-56 11q-47 0-77-12t-42-23q8-26 12-57t4-65V0h-93v272q0 46-5 79t-17 55-34 32-55 11q-14 0-30-1t-30-2-27-4-16-3V0H80v505z"/><glyph unicode="n" glyph-name="n" horiz-adv-x="574" d="M80 505q32 8 85 17t122 9q62 0 103-17t65-49 35-76 10-97V0h-93v272q0 48-6 82t-22 55-40 30-62 10q-15 0-31-1t-30-2-26-4-17-3V0H80v505z"/><glyph unicode="o" glyph-name="o" horiz-adv-x="590" d="M539 260q0-62-18-112t-50-86-78-55-98-20q-53 0-98 19t-77 56-51 86-18 112q0 61 18 111t50 87 78 55 98 20q53 0 98-19t77-56 51-86 18-112zm-97 0q0 88-39 139t-108 52q-68 0-107-51t-40-140q0-88 39-139t108-52q68 0 107 51t40 140z"/><glyph unicode="p" glyph-name="p" horiz-adv-x="589" d="M441 259q0 91-45 140t-120 49q-42 0-65-3t-38-7V110q17-14 49-27t70-13q40 0 68 14t47 40 26 60 8 75zm97 0q0-59-15-109t-46-86-73-56-100-20q-45 0-79 12t-52 23v-208H80v689q33 8 82 17t115 10q60 0 108-19t82-54 52-85 19-114z"/><glyph unicode="q" glyph-name="q" horiz-adv-x="589" d="M148 259q0-40 8-74t26-60 46-40 69-15q38 0 70 13t49 27v328q-14 4-37 7t-66 3q-75 0-120-49t-45-140zm-97 0q0 63 18 113t53 86 82 54 108 19q65 0 114-9t83-18v-689h-93V23q-17-11-51-23t-80-12q-56 0-99 20t-74 56-45 86-16 109z"/><glyph unicode="r" glyph-name="r" horiz-adv-x="386" d="M272 531q12 0 27-1t31-4 27-5 19-5l-16-81q-11 4-36 9t-66 6q-26 0-51-5t-34-8V0H80v498q33 12 82 22t110 11z"/><glyph unicode="s" glyph-name="s" horiz-adv-x="446" d="M201 67q57 0 84 15t28 48q0 34-27 54t-89 45q-30 12-57 24t-48 30-32 41-12 59q0 69 51 109t139 41q22 0 44-2t41-6 33-8 23-7l-17-80q-15 8-47 16t-77 9q-39 0-68-15t-29-49q0-17 6-30t20-23 34-20 48-19q37-14 66-27t49-32 32-43 11-63q0-72-53-109T201-12Q132-12 93-1T40 17l17 80q16-6 51-18t93-12z"/><glyph unicode="t" glyph-name="t" horiz-adv-x="402" d="M167 520h197v-78H167V202q0-39 6-64t18-40 30-21 42-6q42 0 67 9t36 14l18-77q-14-7-49-17t-80-11q-53 0-87 13t-56 41-29 66-9 92v464l93 16V520z"/><glyph unicode="u" glyph-name="u" horiz-adv-x="574" d="M494 15q-32-8-84-17t-122-9q-60 0-101 17t-66 50-36 75-11 97v292h93V248q0-95 30-136t101-41q15 0 31 1t30 2 25 3 17 4v439h93V15z"/><glyph unicode="v" glyph-name="v" horiz-adv-x="502" d="M486 520q-39-146-91-280T293 0h-84q-49 106-101 240T16 520h100q12-49 28-104t35-110 38-106 36-91q17 40 36 91t37 105 35 110 29 105h96z"/><glyph unicode="w" glyph-name="w" horiz-adv-x="777" d="M505 0q-28 72-59 164t-58 193q-26-100-57-192T272 0h-81q-46 103-90 235T18 520h100q10-47 24-102t29-110 33-106 32-89q17 47 33 99t32 106 28 105 24 97h77q9-45 22-96t28-105 31-106 34-100q15 38 31 89t33 106 30 110 24 102h96q-39-153-83-285T586 0h-81z"/><glyph unicode="x" glyph-name="x" horiz-adv-x="511" d="M391 0q-11 22-27 49t-35 55-39 57-39 53q-19-25-39-53t-38-57-35-56-27-48H16q35 68 83 138t97 135L24 520h105l124-182 125 182h99L309 279q48-65 98-137T493 0H391z"/><glyph unicode="y" glyph-name="y" horiz-adv-x="497" d="M19-97q11-5 28-9t35-5q55 0 86 24t56 80q-63 120-117 254T16 520h100q11-45 26-97t35-107 41-110 46-106q38 105 66 208t53 212h96q-36-147-80-282T304-16q-20-45-41-77t-48-54-58-31-74-10q-11 0-23 1t-23 4-21 6-14 5l17 75z"/><glyph unicode="z" glyph-name="z" horiz-adv-x="471" d="M425 450q-21-23-55-65t-74-93-79-107-70-107h286V0H36v62q24 44 59 97t73 105 75 99 64 79H50v78h375v-70z"/><glyph unicode="{" glyph-name="braceleft" horiz-adv-x="333" d="M40 335q24 0 41 8t28 22 17 31 6 36v180q0 41 9 73t31 53 58 33 91 12h4v-73q-57 0-81-20t-25-79V457q0-66-17-102t-50-56q32-20 49-56t18-102V-13q0-58 24-78t82-21v-73h-4q-54 0-90 11t-59 33-31 54-9 73v180q0 18-5 35t-17 31-29 22-41 9v72z"/><glyph unicode="|" glyph-name="bar" horiz-adv-x="279" d="M96 783h87v-968H96v968z"/><glyph unicode="}" glyph-name="braceright" horiz-adv-x="333" d="M293 263q-24 0-41-8t-28-22-17-31-6-36V-14q0-41-9-73t-31-54-58-33-91-11H8v73q57 0 81 20t25 79v154q0 66 17 102t50 56q-32 20-49 56t-18 102v154q0 58-24 78T8 710v73h4q54 0 90-11t59-33 31-54 9-73V432q0-18 5-35t17-31 29-22 41-9v-72z"/><glyph unicode="~" glyph-name="asciitilde" horiz-adv-x="564" d="M520 357q-4-20-12-44t-25-45-40-36-60-15q-30 0-55 12t-49 26q-27 16-52 31t-53 16q-16 0-27-7t-19-19-13-25-9-27l-64 18q4 19 13 43t24 46 40 36 60 15q30 0 55-12t49-26q27-16 52-31t53-16q16 0 27 7t19 19 13 25 9 27l64-18z"/><glyph glyph-name="uni00A0" horiz-adv-x="231"/><glyph unicode="¡" glyph-name="exclamdown" horiz-adv-x="276" d="M88 2q0 84 6 152t15 137h58q9-68 15-136t6-153v-187H88V2zM71 453q0 27 18 47t49 20q31 0 49-20t18-47q0-27-18-47t-49-20q-31 0-49 20t-18 47z"/><glyph unicode="¢" glyph-name="cent" horiz-adv-x="564" d="M86 291q0 49 13 92t38 77 61 57 81 32v144h83V554q58-3 110-23l-21-77q-21 9-48 15t-59 6q-78 0-119-47t-42-137q0-40 9-73t30-58 53-37 78-13q37 0 67 7t47 14l13-76q-14-8-48-15t-70-10v-139h-83V35q-48 9-84 31t-60 56-36 77-13 92z"/><glyph unicode="£" glyph-name="sterling" horiz-adv-x="564" d="M246 373h189v-75H246v-8q0-50-4-105T230 80h289V0H125q11 71 19 141t9 142v15H60v75h93v83q0 74 15 122t44 77 69 40 88 11q44 0 74-8t58-19l-23-80q-53 25-113 25-27 0-49-8t-37-27-24-51-9-80v-85z"/><glyph unicode="¤" glyph-name="currency" horiz-adv-x="564" d="M89 347q0 61 28 106l-73 74 58 58 74-75q47 29 106 29t105-29l75 75 58-58-74-74q14-22 21-48t8-58q0-32-7-58t-22-48l74-74-58-58-75 74q-48-28-105-28-29 0-56 7t-50 21l-74-74-58 58 73 73q-28 45-28 107zm311 0q0 28-9 51t-26 39-37 25-46 9q-24 0-45-8t-38-25-25-40-10-51q0-29 9-51t26-39 37-25 46-9q24 0 45 8t38 25 25 39 10 52z"/><glyph unicode="¥" glyph-name="yen" horiz-adv-x="564" d="M237 0v106H75v71h162v102H75v71h136q-54 88-102 174T17 693h103q36-78 78-156t87-150q44 72 84 150t78 156h101q-44-83-92-169T353 350h137v-71H328V177h162v-71H328V0h-91z"/><glyph unicode="¦" glyph-name="brokenbar" horiz-adv-x="279" d="M96 198h87v-383H96v383zm0 585h87V400H96v383z"/><glyph unicode="§" glyph-name="section" horiz-adv-x="492" d="M68-1q30-13 66-22t92-9q56 0 84 16t29 53q0 35-27 54t-91 42q-36 12-68 26t-57 34-39 48-14 68q0 26 8 48t21 41 29 32 31 23q-25 20-39 46t-15 60q0 69 48 109t137 41q51 0 95-10t70-18l-21-77q-24 9-58 19t-87 10q-39 0-67-16t-29-50q0-18 6-30t19-23 33-20 48-18q36-12 68-26t57-34 39-48 14-68q0-25-8-47t-20-40-27-32-31-24q29-21 47-49t18-65q0-75-53-113t-151-39q-67 0-110 10T45-75L68-1zm152 409q-7 2-13 4t-14 6q-29-19-47-44t-18-56q0-26 11-43t32-31 49-24 61-22q5-2 9-3t10-4q29 19 47 44t18 56q0 26-11 43t-32 31-46 23-56 20z"/><glyph unicode="¨" glyph-name="dieresis" horiz-adv-x="376" d="M93 616q-23 0-40 16t-18 43q0 26 17 42t41 17q23 0 40-16t18-43q0-26-17-42t-41-17zm190 0q-23 0-40 16t-18 43q0 26 17 42t41 17q23 0 40-16t18-43q0-26-17-42t-41-17z"/><glyph unicode="©" glyph-name="copyright" horiz-adv-x="814" d="M749 347q0-85-28-152T646 81 537 10 407-15q-68 0-130 24T168 80 93 194 65 347q0 85 28 152t75 114 109 71 130 25q68 0 130-24t109-71 75-114 28-153zm-73 0q0 66-20 120t-55 94-85 60-109 21q-59 0-108-21t-85-60-56-93-20-121q0-66 20-120t55-94 85-60 109-21q59 0 108 21t85 60 56 93 20 121zM419 140q-43 0-78 14t-60 40-40 64-14 89q0 49 15 87t42 64 61 41 74 14q26 0 47-4t38-9 26-11 15-9l-23-60q-12 7-38 16t-62 10q-51 0-85-35t-34-104q0-62 31-101t91-40q39 0 64 8t40 16l19-60q-5-3-16-8t-29-10-38-8-46-4z"/><glyph unicode="ª" glyph-name="ordfeminine" horiz-adv-x="389" d="M196 391q22 0 44 1t27 3v100q-11 2-28 3t-33 1q-17 0-34-2t-32-8-23-16-9-27q0-30 23-42t65-13zm-7 315q41 0 69-10t45-28 25-43 8-58V343q-24-5-65-9t-82-5q-33 0-60 6t-48 21-31 36-12 54q0 31 13 53t35 35 51 20 61 6q14 0 31-1t38-4v3q0 15-3 30t-12 26-25 19-42 8q-23 0-50-3t-48-10l-10 63q19 5 49 10t63 5z"/><glyph unicode="«" glyph-name="guillemotleft" horiz-adv-x="499" d="M30 284l156 221 65-35-111-186L251 98l-65-35L30 284zm208 0l156 221 65-35-111-186L459 98l-65-35-156 221z"/><glyph unicode="¬" glyph-name="logicalnot" horiz-adv-x="564" d="M511 394V53h-80v262H53v79h458z"/><glyph unicode="­" glyph-name="uni00AD" horiz-adv-x="299" d="M26 343h247v-87H26v87z"/><glyph unicode="®" glyph-name="registered" horiz-adv-x="814" d="M749 347q0-85-28-152T646 81 537 10 407-15q-68 0-130 24T168 80 93 194 65 347q0 85 28 152t75 114 109 71 130 25q68 0 130-24t109-71 75-114 28-153zm-73 0q0 66-20 120t-55 94-85 60-109 21q-59 0-108-21t-85-60-56-93-20-121q0-66 20-120t55-94 85-60 109-21q59 0 108 21t85 60 56 93 20 121zM506 148q-23 45-51 85t-50 65h-67V148h-71v388q27 6 57 9t55 3q86 0 131-32t45-97q0-37-19-64t-56-43q10-12 23-30t27-40 28-46 25-48h-77zM338 356h38q45 0 75 12t30 52q0 37-28 51t-69 15h-23q-12 0-23-2V356z"/><glyph unicode="¯" glyph-name="overscore" horiz-adv-x="376" d="M46 711h284v-72H46v72z"/><glyph unicode="°" glyph-name="degree" horiz-adv-x="332" d="M306 637q0-32-11-58t-31-44-44-27-54-10q-28 0-53 9t-45 28-30 44-12 58q0 32 11 58t31 44 44 27 54 10q28 0 53-9t45-28 30-44 12-58zm-67 0q0 35-21 55t-52 21q-30 0-51-20t-22-56q0-35 21-55t52-21q30 0 51 20t22 56z"/><glyph unicode="±" glyph-name="plusminus" horiz-adv-x="564" d="M53 419h189v201h80V419h189v-79H322V139h-80v201H53v79zm0-340h458V0H53v79z"/><glyph unicode="²" glyph-name="twosuperior" horiz-adv-x="359" d="M296 598q0-21-9-41t-26-39-37-39-45-41q-17-14-33-30t-20-30h186v-63H46q-3 33 4 58t22 47 34 38 40 36q34 29 55 53t22 49q0 26-16 38t-46 12q-17 0-32-4t-27-11-21-13-15-11l-36 49q17 18 51 35t80 18q69 0 102-29t33-82z"/><glyph unicode="³" glyph-name="threesuperior" horiz-adv-x="359" d="M144 369q53 0 73 16t20 43q0 17-9 29t-24 19-36 11-41 4h-19v57h25q14 0 29 2t28 9 21 16 8 26q0 25-18 35t-48 11q-27 0-50-9t-40-18l-25 55q16 11 49 22t68 12q73 0 103-29t31-76q0-49-55-80 35-11 55-36t21-61q0-26-9-47t-29-38-51-26-76-9q-31 0-63 7t-50 16l15 60q22-8 46-14t51-7z"/><glyph unicode="´" glyph-name="acute" horiz-adv-x="376" d="M315 717L174 580l-47 42 128 154 60-59z"/><glyph unicode="µ" glyph-name="mu" horiz-adv-x="580" d="M173 520V242q0-95 31-133t100-38q15 0 31 1t30 2 25 3 17 4v439h93V15q-32-8-82-17t-111-9q-55 0-87 11t-53 34q3-28 4-56t1-60v-103H80v705h93z"/><glyph unicode="¶" glyph-name="paragraph" horiz-adv-x="646" d="M386 623h-16q-8 0-14-2v-806h-78v447q-111 11-173 63T43 479q0 55 22 96t65 69 102 42 134 14q42 0 90-3t89-14v-868h-78v803q-14 2-35 3t-46 2z"/><glyph unicode="·" glyph-name="middot" horiz-adv-x="246" d="M190 294q0-27-18-47t-49-20q-31 0-49 20t-18 47q0 27 18 47t49 20q31 0 49-20t18-47z"/><glyph unicode="¸" glyph-name="cedilla" horiz-adv-x="376" d="M199-37q29-14 42-30t13-49q0-11-5-24t-17-24-32-18-49-7q-26 0-47 4t-35 9l11 57q12-4 25-7t31-3q36 0 36 23 0 11-11 18t-31 16l-7 3q3 10 9 23t12 27 11 23 9 16h64q-6-11-15-28t-14-29z"/><glyph unicode="¹" glyph-name="onesuperior" horiz-adv-x="359" d="M50 621q38 13 75 33t64 47h49V315h-70v294q-22-14-50-25t-49-17l-19 54z"/><glyph unicode="º" glyph-name="ordmasculine" horiz-adv-x="446" d="M403 518q0-43-13-78t-38-60-57-38-72-14q-39 0-72 13t-57 39-37 60-14 78q0 43 13 78t38 60 57 38 72 14q39 0 72-13t57-38 37-60 14-79zm-74 0q0 56-27 89t-79 34q-50 0-78-33t-28-90q0-55 27-89t79-34q51 0 78 34t28 89z"/><glyph unicode="»" glyph-name="guillemotright" horiz-adv-x="499" d="M105 63L40 98l111 186L40 470l65 35 156-221L105 63zm208 0l-65 35 111 186-111 186 65 35 156-221L313 63z"/><glyph unicode="¼" glyph-name="onequarter" horiz-adv-x="874" d="M50 621q38 13 75 33t64 47h49V315h-70v294q-22-14-50-25t-49-17l-19 54zm624 72L283 0h-87l391 693h87zm126-304V155h50V96h-50V3h-68v93H539v46q14 25 36 57t48 66 55 66 58 58h64zm-68-83q-31-32-63-72t-55-79h118v151z"/><glyph unicode="½" glyph-name="onehalf" horiz-adv-x="874" d="M50 621q38 13 75 33t64 47h49V315h-70v294q-22-14-50-25t-49-17l-19 54zm603 72L262 0h-87l391 693h87zm158-407q0-21-9-41t-26-39-37-39-45-41q-17-14-33-30t-20-30h186V3H561q-3 33 4 58t22 47 34 38 40 36q34 29 55 53t22 49q0 26-16 38t-46 12q-17 0-32-4t-27-11-21-13-15-11l-36 49q17 18 51 35t80 18q69 0 102-29t33-82z"/><glyph unicode="¾" glyph-name="threequarters" horiz-adv-x="874" d="M144 369q53 0 73 16t20 43q0 17-9 29t-24 19-36 11-41 4h-19v57h25q14 0 29 2t28 9 21 16 8 26q0 25-18 35t-48 11q-27 0-50-9t-40-18l-25 55q16 11 49 22t68 12q73 0 103-29t31-76q0-49-55-80 35-11 55-36t21-61q0-26-9-47t-29-38-51-26-76-9q-31 0-63 7t-50 16l15 60q22-8 46-14t51-7zm545 324L298 0h-87l391 693h87zm111-304V155h50V96h-50V3h-68v93H539v46q14 25 36 57t48 66 55 66 58 58h64zm-68-83q-31-32-63-72t-55-79h118v151z"/><glyph unicode="¿" glyph-name="questiondown" horiz-adv-x="404" d="M126-23q0-38 27-62t77-25q66 0 129 34l26-72q-34-18-76-29t-91-11q-54 0-90 14t-58 36-32 49-10 55q0 33 12 59t32 49 40 45 41 44 31 50 13 59v9q0 4-1 10h78q4-20 4-39 0-32-11-58t-28-48-37-43-36-40-28-41-12-45zm37 476q0 27 18 47t49 20q31 0 49-20t18-47q0-27-18-47t-49-20q-31 0-49 20t-18 47z"/><glyph unicode="À" glyph-name="Agrave" horiz-adv-x="663" d="M549 0q-17 45-32 88t-31 89H172L109 0H8q40 110 75 203t68 178 67 160 69 152h89q36-75 69-151t66-161 69-177T655 0H549zm-91 257q-32 87-63 168t-66 157q-35-75-66-156t-63-169h258zM271 932l128-154-47-42-141 137 60 59z"/><glyph unicode="Á" glyph-name="Aacute" horiz-adv-x="663" d="M549 0q-17 45-32 88t-31 89H172L109 0H8q40 110 75 203t68 178 67 160 69 152h89q36-75 69-151t66-161 69-177T655 0H549zm-91 257q-32 87-63 168t-66 157q-35-75-66-156t-63-169h258zm-1 616L316 736l-47 42 128 154 60-59z"/><glyph unicode="Â" glyph-name="Acircumflex" horiz-adv-x="663" d="M549 0q-17 45-32 88t-31 89H172L109 0H8q40 110 75 203t68 178 67 160 69 152h89q36-75 69-151t66-161 69-177T655 0H549zm-91 257q-32 87-63 168t-66 157q-35-75-66-156t-63-169h258zM331 925l136-143-39-44-97 88-97-88-39 44 136 143z"/><glyph unicode="Ã" glyph-name="Atilde" horiz-adv-x="663" d="M549 0q-17 45-32 88t-31 89H172L109 0H8q40 110 75 203t68 178 67 160 69 152h89q36-75 69-151t66-161 69-177T655 0H549zm-91 257q-32 87-63 168t-66 157q-35-75-66-156t-63-169h258zm38 610q-5-12-13-28t-22-29-30-23-39-10q-20 0-37 7t-34 15q-17 8-29 12t-23 4q-17 0-31-14t-23-30l-48 24q4 12 13 28t22 29 30 23 39 10q20 0 37-7t34-15q17-8 29-12t23-4q17 0 31 14t23 30l48-24z"/><glyph unicode="Ä" glyph-name="Adieresis" horiz-adv-x="663" d="M549 0q-17 45-32 88t-31 89H172L109 0H8q40 110 75 203t68 178 67 160 69 152h89q36-75 69-151t66-161 69-177T655 0H549zm-91 257q-32 87-63 168t-66 157q-35-75-66-156t-63-169h258zM236 772q-23 0-40 16t-18 43q0 26 17 42t41 17q23 0 40-16t18-43q0-26-17-42t-41-17zm190 0q-23 0-40 16t-18 43q0 26 17 42t41 17q23 0 40-16t18-43q0-26-17-42t-41-17z"/><glyph unicode="Å" glyph-name="Aring" horiz-adv-x="663" d="M172 178L109 0H8q37 102 70 190t64 168 62 152 64 143q-19 14-30 35t-11 49q0 24 8 42t23 32 32 21 40 7q21 0 39-7t33-20 22-32 9-43q0-27-11-47t-29-35q33-71 64-143t62-152 65-168T655 0H549q-17 45-32 89t-31 89H172zm286 79q-32 87-63 168t-66 157q-35-75-66-156t-63-169h258zm-75 480q0 26-15 40t-38 15q-22 0-37-14t-16-41q0-26 15-40t38-15q22 0 37 14t16 41z"/><glyph unicode="Æ" glyph-name="AE" horiz-adv-x="935" d="M873 612H572V403h265v-79H572V81h326V0H476v178H203q-24-44-47-88T110 0H6q57 108 111 203t107 181 102 161 101 148h446v-81zm-397 5q-53-72-110-163T248 257h228v360z"/><glyph unicode="Ç" glyph-name="Ccedilla" horiz-adv-x="620" d="M330-11q-62 8-112 35t-85 73-55 108-20 142q0 87 26 154t72 114 105 70 128 24q43 0 77-6t60-14 42-16 22-12l-28-80q-9 6-26 13t-38 14-47 11-52 5q-55 0-99-19t-75-55-47-87-17-116q0-62 14-113t44-87 72-57 102-20q67 0 111 14t66 25l25-80q-14-11-67-26T392-15q-3-6-5-11t-5-11q29-14 42-30t13-49q0-11-5-24t-17-24-32-18-49-7q-26 0-47 4t-35 9l11 57q12-4 25-7t31-3q36 0 36 23 0 11-11 18t-31 16l-7 3q4 12 10 28t14 30z"/><glyph unicode="È" glyph-name="Egrave" horiz-adv-x="571" d="M86 0v693h423v-83H183V404h290v-81H183V83h351V0H86zm174 932l128-154-47-42-141 137 60 59z"/><glyph unicode="É" glyph-name="Eacute" horiz-adv-x="571" d="M86 0v693h423v-83H183V404h290v-81H183V83h351V0H86zm355 873L300 736l-47 42 128 154 60-59z"/><glyph unicode="Ê" glyph-name="Ecircumflex" horiz-adv-x="571" d="M86 0v693h423v-83H183V404h290v-81H183V83h351V0H86zm211 925l136-143-39-44-97 88-97-88-39 44 136 143z"/><glyph unicode="Ë" glyph-name="Edieresis" horiz-adv-x="571" d="M86 0v693h423v-83H183V404h290v-81H183V83h351V0H86zm116 772q-23 0-40 16t-18 43q0 26 17 42t41 17q23 0 40-16t18-43q0-26-17-42t-41-17zm190 0q-23 0-40 16t-18 43q0 26 17 42t41 17q23 0 40-16t18-43q0-26-17-42t-41-17z"/><glyph unicode="Ì" glyph-name="Igrave" horiz-adv-x="269" d="M86 693h97V0H86v693zM75 932l128-154-47-42L15 873l60 59z"/><glyph unicode="Í" glyph-name="Iacute" horiz-adv-x="269" d="M86 693h97V0H86v693zm170 180L115 736l-47 42 128 154 60-59z"/><glyph unicode="Î" glyph-name="Icircumflex" horiz-adv-x="269" d="M86 693h97V0H86v693zm49 232l136-143-39-44-97 88-97-88-39 44 136 143z"/><glyph unicode="Ï" glyph-name="Idieresis" horiz-adv-x="269" d="M86 693h97V0H86v693zm-46 79q-23 0-40 16t-18 43q0 26 17 42t41 17q23 0 40-16t18-43q0-26-17-42t-41-17zm190 0q-23 0-40 16t-18 43q0 26 17 42t41 17q23 0 40-16t18-43q0-26-17-42t-41-17z"/><glyph unicode="Ð" glyph-name="Eth" horiz-adv-x="726" d="M668 347q0-90-28-156T561 81 439 16 283-6q-42 0-92 3T99 11v313H19v75h80v284q41 10 91 13t93 4q85 0 156-21t122-65 79-110 28-157zM291 79q138 0 206 70t68 198q0 127-68 197t-206 71q-41 0-63-1t-32-2V399h130v-75H196V82q9-1 31-2t64-1z"/><glyph unicode="Ñ" glyph-name="Ntilde" horiz-adv-x="728" d="M561 0q-22 37-50 83t-62 95-68 101-71 98-68 90-61 74V0H86v693h77q47-50 100-116t106-137 99-139 79-121v513h95V0h-81zm-32 867q-5-12-13-28t-22-29-30-23-39-10q-20 0-37 7t-34 15q-17 8-29 12t-23 4q-17 0-31-14t-23-30l-48 24q4 12 13 28t22 29 30 23 39 10q20 0 37-7t34-15q17-8 29-12t23-4q17 0 31 14t23 30l48-24z"/><glyph unicode="Ò" glyph-name="Ograve" horiz-adv-x="778" d="M58 347q0 89 26 157t72 113 106 69 129 23q67 0 126-23t105-68 71-114 27-157q0-89-26-157T622 77 518 8 391-15q-68 0-128 23T157 76 85 190 58 347zm102 0q0-63 16-114t45-88 72-55 96-20q53 0 95 19t71 56 46 87 16 115q0 63-16 114t-45 88-72 55-95 20q-53 0-95-19t-72-56-46-87-16-115zm169 585l128-154-47-42-141 137 60 59z"/><glyph unicode="Ó" glyph-name="Oacute" horiz-adv-x="778" d="M58 347q0 89 26 157t72 113 106 69 129 23q67 0 126-23t105-68 71-114 27-157q0-89-26-157T622 77 518 8 391-15q-68 0-128 23T157 76 85 190 58 347zm102 0q0-63 16-114t45-88 72-55 96-20q53 0 95 19t71 56 46 87 16 115q0 63-16 114t-45 88-72 55-95 20q-53 0-95-19t-72-56-46-87-16-115zm350 526L369 736l-47 42 128 154 60-59z"/><glyph unicode="Ô" glyph-name="Ocircumflex" horiz-adv-x="778" d="M58 347q0 89 26 157t72 113 106 69 129 23q67 0 126-23t105-68 71-114 27-157q0-89-26-157T622 77 518 8 391-15q-68 0-128 23T157 76 85 190 58 347zm102 0q0-63 16-114t45-88 72-55 96-20q53 0 95 19t71 56 46 87 16 115q0 63-16 114t-45 88-72 55-95 20q-53 0-95-19t-72-56-46-87-16-115zm229 578l136-143-39-44-97 88-97-88-39 44 136 143z"/><glyph unicode="Õ" glyph-name="Otilde" horiz-adv-x="778" d="M58 347q0 89 26 157t72 113 106 69 129 23q67 0 126-23t105-68 71-114 27-157q0-89-26-157T622 77 518 8 391-15q-68 0-128 23T157 76 85 190 58 347zm102 0q0-63 16-114t45-88 72-55 96-20q53 0 95 19t71 56 46 87 16 115q0 63-16 114t-45 88-72 55-95 20q-53 0-95-19t-72-56-46-87-16-115zm394 520q-5-12-13-28t-22-29-30-23-39-10q-20 0-37 7t-34 15q-17 8-29 12t-23 4q-17 0-31-14t-23-30l-48 24q4 12 13 28t22 29 30 23 39 10q20 0 37-7t34-15q17-8 29-12t23-4q17 0 31 14t23 30l48-24z"/><glyph unicode="Ö" glyph-name="Odieresis" horiz-adv-x="778" d="M58 347q0 89 26 157t72 113 106 69 129 23q67 0 126-23t105-68 71-114 27-157q0-89-26-157T622 77 518 8 391-15q-68 0-128 23T157 76 85 190 58 347zm102 0q0-63 16-114t45-88 72-55 96-20q53 0 95 19t71 56 46 87 16 115q0 63-16 114t-45 88-72 55-95 20q-53 0-95-19t-72-56-46-87-16-115zm134 425q-23 0-40 16t-18 43q0 26 17 42t41 17q23 0 40-16t18-43q0-26-17-42t-41-17zm190 0q-23 0-40 16t-18 43q0 26 17 42t41 17q23 0 40-16t18-43q0-26-17-42t-41-17z"/><glyph unicode="×" glyph-name="multiply" horiz-adv-x="564" d="M428 97L282 243 136 97l-56 56 146 146L80 445l56 56 146-146 146 146 56-56-146-146 146-146-56-56z"/><glyph unicode="Ø" glyph-name="Oslash" horiz-adv-x="778" d="M58 347q0 89 26 157t72 113 106 69 129 23q106 0 188-56l59 77 62-46-64-83q39-45 61-108t23-146q0-89-26-157T622 77 518 8 391-15q-53 0-100 13t-89 41l-58-75-62 46 62 80q-40 45-63 109T58 347zm102 0q0-109 44-179l319 413q-55 43-134 43-53 0-95-19t-72-56-46-87-16-115zM389 70q53 0 95 19t71 56 46 87 16 115q0 53-11 96t-31 79L257 111q53-41 132-41z"/><glyph unicode="Ù" glyph-name="Ugrave" horiz-adv-x="688" d="M344-15q-68 0-118 21t-82 57-47 87-16 108v435h97V269q0-104 46-151t120-47q37 0 67 11t53 36 34 61 12 90v424h97V258q0-58-15-108t-48-86-82-58-118-21zm-60 947l128-154-47-42-141 137 60 59z"/><glyph unicode="Ú" glyph-name="Uacute" horiz-adv-x="688" d="M344-15q-68 0-118 21t-82 57-47 87-16 108v435h97V269q0-104 46-151t120-47q37 0 67 11t53 36 34 61 12 90v424h97V258q0-58-15-108t-48-86-82-58-118-21zm121 888L324 736l-47 42 128 154 60-59z"/><glyph unicode="Û" glyph-name="Ucircumflex" horiz-adv-x="688" d="M344-15q-68 0-118 21t-82 57-47 87-16 108v435h97V269q0-104 46-151t120-47q37 0 67 11t53 36 34 61 12 90v424h97V258q0-58-15-108t-48-86-82-58-118-21zm0 940l136-143-39-44-97 88-97-88-39 44 136 143z"/><glyph unicode="Ü" glyph-name="Udieresis" horiz-adv-x="688" d="M344-15q-68 0-118 21t-82 57-47 87-16 108v435h97V269q0-104 46-151t120-47q37 0 67 11t53 36 34 61 12 90v424h97V258q0-58-15-108t-48-86-82-58-118-21zm-95 787q-23 0-40 16t-18 43q0 26 17 42t41 17q23 0 40-16t18-43q0-26-17-42t-41-17zm190 0q-23 0-40 16t-18 43q0 26 17 42t41 17q23 0 40-16t18-43q0-26-17-42t-41-17z"/><glyph unicode="Ý" glyph-name="Yacute" horiz-adv-x="598" d="M251 0v278q-69 107-130 211T6 693h114q38-82 85-166t97-163q49 78 96 162t86 167h108q-54-100-115-203T348 280V0h-97zm170 873L280 736l-47 42 128 154 60-59z"/><glyph unicode="Þ" glyph-name="Thorn" horiz-adv-x="609" d="M183 222h73q50 0 90 6t67 23 43 43 15 69q0 40-15 66t-44 42-67 22-86 6h-37q-19 0-39-2V222zm0 471V580q19 2 39 2t40 1q311 0 311-221 0-60-21-101t-62-68-99-39-131-12h-77V0H86v693h97z"/><glyph unicode="ß" glyph-name="germandbls" horiz-adv-x="623" d="M498 616q0-25-7-44t-17-36-23-31-24-26q-23-25-39-41t-16-42q0-15 7-26t20-19 26-15 30-14q27-13 50-28t41-34 27-46 10-64q0-78-48-120T384-12q-21 0-42 3t-39 7-31 10-20 8l16 81q6-3 18-8t29-10 36-8 40-4q50 0 74 22t24 59q0 39-23 64t-80 51q-33 15-54 28t-34 28-17 29-5 35q0 40 22 67t47 53q10 10 20 22t20 24 14 26 6 27q0 44-26 68t-78 25q-67 0-97-38t-31-105V0H80v554q0 50 14 91t41 70 67 45 92 16q54 0 93-12t63-33 36-51 12-64z"/><glyph unicode="à" glyph-name="agrave" horiz-adv-x="522" d="M256 67q33 0 58 1t43 6v155q-10 5-32 8t-55 4q-21 0-44-3t-43-12-33-26-13-44q0-50 32-69t87-20zm-8 466q56 0 94-14t62-41 34-63 10-81V9q-12-2-33-5t-49-7-58-5-63-3q-44 0-81 9t-64 28-42 52-15 77q0 43 17 74t48 50 70 28 84 9q14 0 29-1t28-4 24-5 14-3v26q0 23-5 45t-18 40-35 28-59 11q-46 0-80-6t-52-14l-11 77q18 8 60 15t91 8zm-45 243l128-154-47-42-141 137 60 59z"/><glyph unicode="á" glyph-name="aacute" horiz-adv-x="522" d="M256 67q33 0 58 1t43 6v155q-10 5-32 8t-55 4q-21 0-44-3t-43-12-33-26-13-44q0-50 32-69t87-20zm-8 466q56 0 94-14t62-41 34-63 10-81V9q-12-2-33-5t-49-7-58-5-63-3q-44 0-81 9t-64 28-42 52-15 77q0 43 17 74t48 50 70 28 84 9q14 0 29-1t28-4 24-5 14-3v26q0 23-5 45t-18 40-35 28-59 11q-46 0-80-6t-52-14l-11 77q18 8 60 15t91 8zm136 184L243 580l-47 42 128 154 60-59z"/><glyph unicode="â" glyph-name="acircumflex" horiz-adv-x="522" d="M256 67q33 0 58 1t43 6v155q-10 5-32 8t-55 4q-21 0-44-3t-43-12-33-26-13-44q0-50 32-69t87-20zm-8 466q56 0 94-14t62-41 34-63 10-81V9q-12-2-33-5t-49-7-58-5-63-3q-44 0-81 9t-64 28-42 52-15 77q0 43 17 74t48 50 70 28 84 9q14 0 29-1t28-4 24-5 14-3v26q0 23-5 45t-18 40-35 28-59 11q-46 0-80-6t-52-14l-11 77q18 8 60 15t91 8zm15 236l136-143-39-44-97 88-97-88-39 44 136 143z"/><glyph unicode="ã" glyph-name="atilde" horiz-adv-x="522" d="M256 67q33 0 58 1t43 6v155q-10 5-32 8t-55 4q-21 0-44-3t-43-12-33-26-13-44q0-50 32-69t87-20zm-8 466q56 0 94-14t62-41 34-63 10-81V9q-12-2-33-5t-49-7-58-5-63-3q-44 0-81 9t-64 28-42 52-15 77q0 43 17 74t48 50 70 28 84 9q14 0 29-1t28-4 24-5 14-3v26q0 23-5 45t-18 40-35 28-59 11q-46 0-80-6t-52-14l-11 77q18 8 60 15t91 8zm180 178q-5-12-13-28t-22-29-30-23-39-10q-20 0-37 7t-34 15q-17 8-29 12t-23 4q-17 0-31-14t-23-30l-48 24q4 12 13 28t22 29 30 23 39 10q20 0 37-7t34-15q17-8 29-12t23-4q17 0 31 14t23 30l48-24z"/><glyph unicode="ä" glyph-name="adieresis" horiz-adv-x="522" d="M256 67q33 0 58 1t43 6v155q-10 5-32 8t-55 4q-21 0-44-3t-43-12-33-26-13-44q0-50 32-69t87-20zm-8 466q56 0 94-14t62-41 34-63 10-81V9q-12-2-33-5t-49-7-58-5-63-3q-44 0-81 9t-64 28-42 52-15 77q0 43 17 74t48 50 70 28 84 9q14 0 29-1t28-4 24-5 14-3v26q0 23-5 45t-18 40-35 28-59 11q-46 0-80-6t-52-14l-11 77q18 8 60 15t91 8zm-80 83q-23 0-40 16t-18 43q0 26 17 42t41 17q23 0 40-16t18-43q0-26-17-42t-41-17zm190 0q-23 0-40 16t-18 43q0 26 17 42t41 17q23 0 40-16t18-43q0-26-17-42t-41-17z"/><glyph unicode="å" glyph-name="aring" horiz-adv-x="522" d="M256 67q33 0 58 1t43 6v155q-10 5-32 8t-55 4q-21 0-44-3t-43-12-33-26-13-44q0-50 32-69t87-20zm-8 466q56 0 94-14t62-41 34-63 10-81V9q-12-2-33-5t-49-7-58-5-63-3q-44 0-81 9t-64 28-42 52-15 77q0 43 17 74t48 50 70 28 84 9q14 0 29-1t28-4 24-5 14-3v26q0 23-5 45t-18 40-35 28-59 11q-46 0-80-6t-52-14l-11 77q18 8 60 15t91 8zm118 144q0-24-8-42t-23-32-32-21-40-7q-21 0-39 7t-33 20-22 32-9 43q0 24 8 42t23 32 32 21 40 7q21 0 39-7t33-20 22-32 9-43zm-50 0q0 26-15 40t-38 15q-22 0-37-14t-16-41q0-26 15-40t38-15q22 0 37 14t16 41z"/><glyph unicode="æ" glyph-name="ae" horiz-adv-x="859" d="M613-12q-57 0-99 13t-75 40q-10-7-26-16T373 8 322-6t-63-6q-50 0-89 9t-68 29-43 52-15 77q0 43 17 74t48 50 70 28 84 9q14 0 29-1t28-4 23-5 14-3v26q0 23-5 45t-18 40-35 28-59 11q-46 0-80-6t-52-14l-11 77q18 8 59 15t90 8q69 0 109-23t61-66q33 45 78 67t94 22q104 0 160-66t57-199v-13q0-5-1-11v-9H448q6-80 47-122t128-43q49 0 82 8t51 17l13-78q-17-9-59-19t-97-10zM261 67q52 0 82 11t46 23q-15 28-23 60t-10 68q-11 5-32 8t-53 4q-21 0-44-3t-43-12-33-26-13-44q0-51 32-70t91-19zm447 243q1 63-31 103t-90 41q-32 0-56-12t-41-33-27-46-13-53h258z"/><glyph unicode="ç" glyph-name="ccedilla" horiz-adv-x="465" d="M318-12l-11-25q29-14 42-30t13-49q0-11-5-24t-17-24-32-18-49-7q-26 0-47 4t-35 9l11 57q12-4 25-7t31-3q36 0 36 23 0 11-11 18t-31 16l-7 3q4 12 11 29t15 32q-51 7-89 29t-65 58-39 80-13 100q0 60 17 110t50 86 78 57 104 21q35 0 70-6t67-19l-21-79q-21 10-48 16t-59 6q-78 0-119-49t-42-143q0-42 9-77t30-60 53-38 78-14q37 0 67 7t47 15l13-78q-8-4-21-8t-31-8-36-6-39-4z"/><glyph unicode="è" glyph-name="egrave" horiz-adv-x="559" d="M51 259q0 69 20 120t53 86 76 51 88 17q105 0 161-65t56-200v-15q0-9-1-18H148q6-81 47-123t128-42q49 0 82 8t51 17l13-78q-17-9-59-19t-97-10q-68 0-117 20t-82 57-47 85-16 109zm357 51q1 63-31 103t-90 41q-32 0-56-12t-42-33-26-46-13-53h258zM226 776l128-154-47-42-141 137 60 59z"/><glyph unicode="é" glyph-name="eacute" horiz-adv-x="559" d="M51 259q0 69 20 120t53 86 76 51 88 17q105 0 161-65t56-200v-15q0-9-1-18H148q6-81 47-123t128-42q49 0 82 8t51 17l13-78q-17-9-59-19t-97-10q-68 0-117 20t-82 57-47 85-16 109zm357 51q1 63-31 103t-90 41q-32 0-56-12t-42-33-26-46-13-53h258zm-1 407L266 580l-47 42 128 154 60-59z"/><glyph unicode="ê" glyph-name="ecircumflex" horiz-adv-x="559" d="M51 259q0 69 20 120t53 86 76 51 88 17q105 0 161-65t56-200v-15q0-9-1-18H148q6-81 47-123t128-42q49 0 82 8t51 17l13-78q-17-9-59-19t-97-10q-68 0-117 20t-82 57-47 85-16 109zm357 51q1 63-31 103t-90 41q-32 0-56-12t-42-33-26-46-13-53h258zM286 769l136-143-39-44-97 88-97-88-39 44 136 143z"/><glyph unicode="ë" glyph-name="edieresis" horiz-adv-x="559" d="M51 259q0 69 20 120t53 86 76 51 88 17q105 0 161-65t56-200v-15q0-9-1-18H148q6-81 47-123t128-42q49 0 82 8t51 17l13-78q-17-9-59-19t-97-10q-68 0-117 20t-82 57-47 85-16 109zm357 51q1 63-31 103t-90 41q-32 0-56-12t-42-33-26-46-13-53h258zM191 616q-23 0-40 16t-18 43q0 26 17 42t41 17q23 0 40-16t18-43q0-26-17-42t-41-17zm190 0q-23 0-40 16t-18 43q0 26 17 42t41 17q23 0 40-16t18-43q0-26-17-42t-41-17z"/><glyph unicode="ì" glyph-name="igrave" horiz-adv-x="253" d="M173 0H80v520h93V0zm150 776l128-154-47-42-141 137 60 59z"/><glyph unicode="í" glyph-name="iacute" horiz-adv-x="253" d="M173 0H80v520h93V0zm331 717L363 580l-47 42 128 154 60-59z"/><glyph unicode="î" glyph-name="icircumflex" horiz-adv-x="253" d="M173 0H80v520h93V0zm210 769l136-143-39-44-97 88-97-88-39 44 136 143z"/><glyph unicode="ï" glyph-name="idieresis" horiz-adv-x="253" d="M173 0H80v520h93V0zm115 616q-23 0-40 16t-18 43q0 26 17 42t41 17q23 0 40-16t18-43q0-26-17-42t-41-17zm190 0q-23 0-40 16t-18 43q0 26 17 42t41 17q23 0 40-16t18-43q0-26-17-42t-41-17z"/><glyph unicode="ð" glyph-name="eth" horiz-adv-x="589" d="M564 657l-107-37q32-54 54-126t22-166q0-66-11-127T482 92t-75-76-120-29q-59 0-103 22t-74 58-44 83-15 98q0 56 16 101t47 76 73 48 98 17q51 0 89-16t56-30q-12 80-55 148l-120-41-23 63 102 35q-33 39-84 76l59 51q22-14 50-38t58-61l124 43 23-63zM438 325v16q0 8-1 16-34 30-71 41t-69 11q-41 0-69-12t-47-35-26-51-9-63q0-36 9-68t26-57 44-39 62-15q46 0 75 22t46 58 23 82 7 94z"/><glyph unicode="ñ" glyph-name="ntilde" horiz-adv-x="574" d="M80 505q32 8 85 17t122 9q62 0 103-17t65-49 35-76 10-97V0h-93v272q0 48-6 82t-22 55-40 30-62 10q-15 0-31-1t-30-2-26-4-17-3V0H80v505zm375 206q-5-12-13-28t-22-29-30-23-39-10q-20 0-37 7t-34 15q-17 8-29 12t-23 4q-17 0-31-14t-23-30l-48 24q4 12 13 28t22 29 30 23 39 10q20 0 37-7t34-15q17-8 29-12t23-4q17 0 31 14t23 30l48-24z"/><glyph unicode="ò" glyph-name="ograve" horiz-adv-x="590" d="M539 260q0-62-18-112t-50-86-78-55-98-20q-53 0-98 19t-77 56-51 86-18 112q0 61 18 111t50 87 78 55 98 20q53 0 98-19t77-56 51-86 18-112zm-97 0q0 88-39 139t-108 52q-68 0-107-51t-40-140q0-88 39-139t108-52q68 0 107 51t40 140zM235 776l128-154-47-42-141 137 60 59z"/><glyph unicode="ó" glyph-name="oacute" horiz-adv-x="590" d="M539 260q0-62-18-112t-50-86-78-55-98-20q-53 0-98 19t-77 56-51 86-18 112q0 61 18 111t50 87 78 55 98 20q53 0 98-19t77-56 51-86 18-112zm-97 0q0 88-39 139t-108 52q-68 0-107-51t-40-140q0-88 39-139t108-52q68 0 107 51t40 140zm-26 457L275 580l-47 42 128 154 60-59z"/><glyph unicode="ô" glyph-name="ocircumflex" horiz-adv-x="590" d="M539 260q0-62-18-112t-50-86-78-55-98-20q-53 0-98 19t-77 56-51 86-18 112q0 61 18 111t50 87 78 55 98 20q53 0 98-19t77-56 51-86 18-112zm-97 0q0 88-39 139t-108 52q-68 0-107-51t-40-140q0-88 39-139t108-52q68 0 107 51t40 140zM295 769l136-143-39-44-97 88-97-88-39 44 136 143z"/><glyph unicode="õ" glyph-name="otilde" horiz-adv-x="590" d="M539 260q0-62-18-112t-50-86-78-55-98-20q-53 0-98 19t-77 56-51 86-18 112q0 61 18 111t50 87 78 55 98 20q53 0 98-19t77-56 51-86 18-112zm-97 0q0 88-39 139t-108 52q-68 0-107-51t-40-140q0-88 39-139t108-52q68 0 107 51t40 140zm18 451q-5-12-13-28t-22-29-30-23-39-10q-20 0-37 7t-34 15q-17 8-29 12t-23 4q-17 0-31-14t-23-30l-48 24q4 12 13 28t22 29 30 23 39 10q20 0 37-7t34-15q17-8 29-12t23-4q17 0 31 14t23 30l48-24z"/><glyph unicode="ö" glyph-name="odieresis" horiz-adv-x="590" d="M539 260q0-62-18-112t-50-86-78-55-98-20q-53 0-98 19t-77 56-51 86-18 112q0 61 18 111t50 87 78 55 98 20q53 0 98-19t77-56 51-86 18-112zm-97 0q0 88-39 139t-108 52q-68 0-107-51t-40-140q0-88 39-139t108-52q68 0 107 51t40 140zM200 616q-23 0-40 16t-18 43q0 26 17 42t41 17q23 0 40-16t18-43q0-26-17-42t-41-17zm190 0q-23 0-40 16t-18 43q0 26 17 42t41 17q23 0 40-16t18-43q0-26-17-42t-41-17z"/><glyph unicode="÷" glyph-name="divide" horiz-adv-x="564" d="M282 45q-25 0-42 16t-18 45q0 28 17 44t43 17q25 0 42-16t18-45q0-28-17-44t-43-17zm0 386q-25 0-42 16t-18 45q0 28 17 44t43 17q25 0 42-16t18-45q0-28-17-44t-43-17zM53 339h458v-79H53v79z"/><glyph unicode="ø" glyph-name="oslash" horiz-adv-x="590" d="M480 445q28-35 43-81t16-104q0-62-18-112t-50-86-78-55-98-20q-79 0-137 41l-49-64L56 4l54 70q-28 35-43 82T51 260q0 61 18 111t50 87 78 55 98 20q39 0 73-11t64-31l49 64 53-40-54-70zM147 260q0-65 21-110l212 274q-36 28-85 28-69 0-108-51t-40-141zm296 0q0 62-22 109L210 95q34-27 85-27 69 0 108 51t40 141z"/><glyph unicode="ù" glyph-name="ugrave" horiz-adv-x="574" d="M494 15q-32-8-84-17t-122-9q-60 0-101 17t-66 50-36 75-11 97v292h93V248q0-95 30-136t101-41q15 0 31 1t30 2 25 3 17 4v439h93V15zM224 776l128-154-47-42-141 137 60 59z"/><glyph unicode="ú" glyph-name="uacute" horiz-adv-x="574" d="M494 15q-32-8-84-17t-122-9q-60 0-101 17t-66 50-36 75-11 97v292h93V248q0-95 30-136t101-41q15 0 31 1t30 2 25 3 17 4v439h93V15zm-89 702L264 580l-47 42 128 154 60-59z"/><glyph unicode="û" glyph-name="ucircumflex" horiz-adv-x="574" d="M494 15q-32-8-84-17t-122-9q-60 0-101 17t-66 50-36 75-11 97v292h93V248q0-95 30-136t101-41q15 0 31 1t30 2 25 3 17 4v439h93V15zM284 769l136-143-39-44-97 88-97-88-39 44 136 143z"/><glyph unicode="ü" glyph-name="udieresis" horiz-adv-x="574" d="M494 15q-32-8-84-17t-122-9q-60 0-101 17t-66 50-36 75-11 97v292h93V248q0-95 30-136t101-41q15 0 31 1t30 2 25 3 17 4v439h93V15zM189 616q-23 0-40 16t-18 43q0 26 17 42t41 17q23 0 40-16t18-43q0-26-17-42t-41-17zm190 0q-23 0-40 16t-18 43q0 26 17 42t41 17q23 0 40-16t18-43q0-26-17-42t-41-17z"/><glyph unicode="ý" glyph-name="yacute" horiz-adv-x="497" d="M19-97q11-5 28-9t35-5q55 0 86 24t56 80q-63 120-117 254T16 520h100q11-45 26-97t35-107 41-110 46-106q38 105 66 208t53 212h96q-36-147-80-282T304-16q-20-45-41-77t-48-54-58-31-74-10q-11 0-23 1t-23 4-21 6-14 5l17 75zm363 814L241 580l-47 42 128 154 60-59z"/><glyph unicode="þ" glyph-name="thorn" horiz-adv-x="589" d="M441 259q0 91-45 140t-120 50q-15 0-31-2t-30-4-26-6-16-5V110q17-14 49-27t70-13q40 0 68 14t47 40 26 60 8 75zm97 0q0-59-15-109t-46-86-73-56-100-20q-45 0-79 12t-52 23v-208H80v945l93 16V511q26 9 54 14t55 6q57 0 104-19t81-54 52-85 19-114z"/><glyph unicode="ÿ" glyph-name="ydieresis" horiz-adv-x="497" d="M19-97q11-5 28-9t35-5q55 0 86 24t56 80q-63 120-117 254T16 520h100q11-45 26-97t35-107 41-110 46-106q38 105 66 208t53 212h96q-36-147-80-282T304-16q-20-45-41-77t-48-54-58-31-74-10q-11 0-23 1t-23 4-21 6-14 5l17 75zm147 713q-23 0-40 16t-18 43q0 26 17 42t41 17q23 0 40-16t18-43q0-26-17-42t-41-17zm190 0q-23 0-40 16t-18 43q0 26 17 42t41 17q23 0 40-16t18-43q0-26-17-42t-41-17z"/><glyph unicode="–" glyph-name="endash" horiz-adv-x="496" d="M-2 339h500v-79H-2v79z"/><glyph unicode="—" glyph-name="emdash" horiz-adv-x="996" d="M-2 339H998v-79H-2v79z"/><glyph unicode="‘" glyph-name="quoteleft" horiz-adv-x="235" d="M60 520v21q0 10 1 21 4 52 23 103t46 95l72-23q-21-44-31-89t-11-84v-21q0-11 2-23H60z"/><glyph unicode="’" glyph-name="quoteright" horiz-adv-x="235" d="M175 750v-21q0-10-1-21-4-52-23-102t-46-96l-72 23q21 45 31 89t11 84v21q0 11-2 23h102z"/><glyph unicode="‚" glyph-name="quotesinglbase" horiz-adv-x="235" d="M175 114V93q0-10-1-21-4-52-23-103t-46-95l-72 23q21 44 31 89t11 84v21q0 11-2 23h102z"/><glyph unicode="“" glyph-name="quotedblleft" horiz-adv-x="417" d="M60 520v21q0 10 1 21 4 52 23 103t46 95l72-23q-21-44-31-89t-11-84v-21q0-11 2-23H60zm182 0v21q0 10 1 21 4 52 23 103t46 95l72-23q-21-44-31-89t-11-84v-21q0-11 2-23H242z"/><glyph unicode="”" glyph-name="quotedblright" horiz-adv-x="417" d="M175 750v-21q0-10-1-21-4-52-23-102t-46-96l-72 23q21 45 31 89t11 84v21q0 11-2 23h102zm182 0v-21q0-10-1-21-4-52-23-102t-46-96l-72 23q21 45 31 89t11 84v21q0 11-2 23h102z"/><glyph unicode="„" glyph-name="quotedblbase" horiz-adv-x="417" d="M175 114V93q0-10-1-21-4-52-23-103t-46-95l-72 23q21 44 31 89t11 84v21q0 11-2 23h102zm182 0V93q0-10-1-21-4-52-23-103t-46-95l-72 23q21 44 31 89t11 84v21q0 11-2 23h102z"/><glyph unicode="•" glyph-name="bullet" horiz-adv-x="360" d="M308 353q0-26-9-49t-25-40-40-27-54-11q-30 0-53 10t-40 28-26 40-9 49q0 25 9 48t25 41 40 27 54 11q30 0 53-10t40-28 26-40 9-49z"/><glyph unicode="‹" glyph-name="guilsinglleft" horiz-adv-x="291" d="M30 284l156 221 65-35-111-186L251 98l-65-35L30 284z"/><glyph unicode="›" glyph-name="guilsinglright" horiz-adv-x="291" d="M105 63L40 98l111 186L40 470l65 35 156-221L105 63z"/></font>
</defs>
</svg>
